<svg width="960" height="540" viewBox="0 0 960 540" fill="none" xmlns="http://www.w3.org/2000/svg">
  <defs>
    <linearGradient id="lg2" x1="120" y1="60" x2="840" y2="460" gradientUnits="userSpaceOnUse">
      <stop stop-color="#22D3EE"/>
      <stop offset="0.3" stop-color="#A855F7"/>
      <stop offset="0.65" stop-color="#F472B6"/>
      <stop offset="1" stop-color="#FACC15"/>
    </linearGradient>
  </defs>
  <path d="M110 440C220 370 250 260 340 230C470 188 540 330 650 320C760 310 780 200 870 160" stroke="url(#lg2)" stroke-width="18" stroke-linecap="round" stroke-linejoin="round" fill="none"/>
  <path d="M140 120C240 90 340 110 410 180C490 260 590 170 700 200C770 220 820 260 850 310" stroke="url(#lg2)" stroke-width="12" stroke-opacity="0.55" stroke-linecap="round" stroke-linejoin="round" fill="none"/>
  <rect x="130" y="110" width="18" height="18" rx="5" fill="#22D3EE"/>
  <rect x="410" y="180" width="20" height="20" rx="6" fill="#FACC15"/>
  <rect x="700" y="200" width="20" height="20" rx="6" fill="#A855F7"/>
</svg>

